<?xml version="1.0" encoding="UTF-8" standalone="no"?>
<!-- Created with Inkscape (http://www.inkscape.org/) -->

<svg
   xmlns:dc="http://purl.org/dc/elements/1.1/"
   xmlns:cc="http://creativecommons.org/ns#"
   xmlns:rdf="http://www.w3.org/1999/02/22-rdf-syntax-ns#"
   xmlns:svg="http://www.w3.org/2000/svg"
   xmlns="http://www.w3.org/2000/svg"
   xmlns:xlink="http://www.w3.org/1999/xlink"
   xmlns:sodipodi="http://sodipodi.sourceforge.net/DTD/sodipodi-0.dtd"
   xmlns:inkscape="http://www.inkscape.org/namespaces/inkscape"
   width="389.76376"
   height="389.76376"
   id="svg2"
   inkscape:label="Pozadí"
   version="1.1"
   inkscape:version="0.48.2 r9819"
   sodipodi:docname="Nový dokument 1">
  <defs
     id="defs3">
    <linearGradient
       id="linearGradient3833">
      <stop
         style="stop-color:#f80000;stop-opacity:1;"
         offset="0"
         id="stop3835" />
      <stop
         style="stop-color:#3b0000;stop-opacity:1;"
         offset="1"
         id="stop3837" />
    </linearGradient>
    <linearGradient
       inkscape:collect="always"
       xlink:href="#linearGradient3833"
       id="linearGradient3839"
       x1="707.15814"
       y1="518.00226"
       x2="353.65625"
       y2="518.00226"
       gradientUnits="userSpaceOnUse"
       gradientTransform="matrix(0.8660254,0.5,-0.5,0.8660254,331.63719,-195.96808)" />
    <linearGradient
       inkscape:collect="always"
       xlink:href="#linearGradient3833"
       id="linearGradient3870"
       gradientUnits="userSpaceOnUse"
       gradientTransform="matrix(0.8660254,0.5,-0.5,0.8660254,331.63719,-195.96808)"
       x1="707.15814"
       y1="518.00226"
       x2="353.65625"
       y2="518.00226" />
  </defs>
  <sodipodi:namedview
     id="base"
     pagecolor="#ffffff"
     bordercolor="#666666"
     borderopacity="1.0"
     inkscape:pageopacity="0.0"
     inkscape:pageshadow="2"
     inkscape:zoom="0.7"
     inkscape:cx="105.73719"
     inkscape:cy="307.34952"
     inkscape:document-units="px"
     inkscape:current-layer="layer1"
     showgrid="false"
     units="mm"
     inkscape:window-width="1280"
     inkscape:window-height="746"
     inkscape:window-x="0"
     inkscape:window-y="0"
     inkscape:window-maximized="1" />
  <metadata
     id="metadata6">
    <rdf:RDF>
      <cc:Work
         rdf:about="">
        <dc:format>image/svg+xml</dc:format>
        <dc:type
           rdf:resource="http://purl.org/dc/dcmitype/StillImage" />
        <dc:title></dc:title>
      </cc:Work>
    </rdf:RDF>
  </metadata>
  <g
     inkscape:label="Vrstva 1"
     inkscape:groupmode="layer"
     id="layer1"
     transform="translate(0,-662.59842)">
    <g
       id="g3860"
       transform="translate(-336.61006,336.61367)">
      <path
         inkscape:connector-curvature="0"
         id="path2984"
         d="m 620.08594,367.42403 c -43.36149,-25.03476 -92.90966,-29.63835 -137.51199,-16.82225 30.9004,-1.16839 62.4689,6.04423 91.18585,22.62397 65.18853,37.63661 96.0256,112.07994 81.36311,182.07497 30.83556,-63.4903 16.49459,-138.66677 -32.72515,-186.50588 -0.77043,-0.46026 -1.53195,-0.92055 -2.31182,-1.37081 z m 30.01281,21.76629 c 35.34698,52.22093 40.15632,122.19721 6.48331,180.52057 -3.51432,6.08698 -7.33744,11.86597 -11.45753,17.34503 -2.66691,6.24536 -5.71795,12.40377 -9.19872,18.43265 -33.05106,57.2461 -94.37093,88.0157 -156.10511,84.88197 77.11477,23.58007 163.05022,-8.09875 205.0933,-80.91951 42.60118,-73.7874 26.10926,-165.49 -34.81525,-220.26071 z m -80.44832,-8.84693 c -37.4453,-21.61905 -79.84977,-26.58614 -118.75352,-17.25037 -29.45857,15.01858 -55.06311,38.4346 -72.82654,69.20176 -18.20469,31.53145 -25.62141,66.33821 -23.38474,100.12856 11.6201,37.64482 36.90661,71.17667 73.7773,92.46398 71.44408,41.24826 161.0483,21.93658 209.6522,-41.87828 31.09869,-74.04376 3.04464,-161.37971 -68.4647,-202.66565 z m -3.95313,6.84702 c 63.55266,36.69214 85.32778,117.95796 48.63563,181.51062 C 577.64079,632.25369 496.37496,654.0288 432.8223,617.33666 369.26965,580.64451 347.49453,499.37869 384.18668,435.82603 420.87882,372.27337 502.14465,350.49826 565.6973,387.19041 z m 56.98811,224.29371 c -53.2901,47.66707 -133.17812,58.17346 -198.34748,20.54791 -27.91429,-16.11633 -49.53279,-38.9883 -63.97893,-65.37275 11.72358,43.81826 40.16594,83.16207 82.55506,107.63544 1.79565,1.03672 3.60498,2.01858 5.42103,2.9855 65.05287,16.8458 135.47541,-8.42635 174.35032,-65.7961 z"
         style="fill:url(#linearGradient3870);fill-opacity:1;stroke:none" />
      <g
         id="text3841"
         style="font-size:65.30548859px;font-style:normal;font-variant:normal;font-stretch:normal;line-height:125%;letter-spacing:0px;word-spacing:0px;fill:#3b0000;fill-opacity:1;stroke:none;font-family:URW Gothic L;-inkscape-font-specification:URW Gothic L Book">
        <path
           id="path3848"
           d="m 382.32262,484.3938 0,48.26076 4.83261,0 0,-18.67737 c 3.13466,4.57138 7.96727,6.98769 13.91007,6.98769 10.64478,0 18.93859,-8.1632 18.93859,-18.61207 0,-10.64478 -8.1632,-18.80798 -18.80798,-18.80798 -6.07341,0 -11.03663,2.48162 -14.04068,6.98769 l 0,-6.13872 -4.83261,0 m 18.67737,3.59181 c 8.03257,0 14.10599,6.13872 14.10599,14.3672 0,8.03257 -6.07342,14.17129 -14.04068,14.17129 -8.16318,0 -14.2366,-6.20403 -14.2366,-14.43251 0,-7.90196 6.26933,-14.10598 14.17129,-14.10598"
           inkscape:connector-curvature="0" />
        <path
           id="path3850"
           d="m 426.83749,520.11591 4.83261,0 0,-19.59165 c 0,-3.85302 0.52244,-6.13872 1.95916,-8.09788 1.95917,-2.80813 5.28975,-4.44077 8.94686,-4.44077 3.46118,0 6.72646,1.50202 8.62032,3.91832 1.69794,2.08978 2.4163,4.83262 2.4163,9.01216 l 0,19.19982 4.83261,0 0,-19.19982 c 0,-5.35504 -0.97958,-9.01216 -3.06936,-11.82029 -2.67752,-3.52649 -7.18361,-5.55097 -12.34274,-5.55097 -4.8979,0 -8.94685,1.95917 -11.36315,5.48566 l 0,-17.17534 -4.83261,0 0,48.26076"
           inkscape:connector-curvature="0" />
        <path
           id="path3852"
           d="m 484.00429,483.54483 c -10.57948,0 -18.74268,8.03259 -18.74268,18.48146 0,10.97131 8.03259,18.93859 19.13451,18.93859 10.44887,0 18.15493,-7.90198 18.15493,-18.61207 0,-10.906 -7.83667,-18.80798 -18.54676,-18.80798 m 0,4.44078 c 7.83665,0 13.64885,6.13872 13.64885,14.43251 0,8.16318 -5.61628,14.10598 -13.38763,14.10598 -8.22848,0 -14.10598,-6.00811 -14.10598,-14.3672 0,-8.09788 5.9428,-14.17129 13.84476,-14.17129"
           inkscape:connector-curvature="0" />
        <path
           id="path3854"
           d="m 509.3622,520.11591 4.83261,0 0,-6.13872 c 3.00405,4.44077 8.09788,6.98769 13.97537,6.98769 10.7754,0 18.87329,-8.03259 18.87329,-18.74268 0,-10.51417 -8.2285,-18.67737 -18.80798,-18.67737 -6.0081,0 -10.97133,2.48162 -14.04068,6.98769 l 0,-18.67737 -4.83261,0 0,48.26076 m 18.74268,-32.1303 c 8.03256,0 14.04068,6.07341 14.04068,14.10598 0,8.22848 -6.07342,14.43251 -14.10599,14.43251 -3.98363,0 -7.24891,-1.37141 -10.05704,-4.24485 -2.80814,-2.87344 -4.11425,-6.13872 -4.11425,-10.18766 0,-7.90196 6.26933,-14.10598 14.2366,-14.10598"
           inkscape:connector-curvature="0" />
        <path
           id="path3856"
           d="m 571.24834,483.54483 c -10.57948,0 -18.74268,8.03259 -18.74268,18.48146 0,10.97131 8.03259,18.93859 19.13451,18.93859 10.44887,0 18.15493,-7.90198 18.15493,-18.61207 0,-10.906 -7.83667,-18.80798 -18.54676,-18.80798 m 0,4.44078 c 7.83665,0 13.64885,6.13872 13.64885,14.43251 0,8.16318 -5.61628,14.10598 -13.38763,14.10598 -8.22848,0 -14.10599,-6.00811 -14.10599,-14.3672 0,-8.09788 5.94281,-14.17129 13.84477,-14.17129"
           inkscape:connector-curvature="0" />
        <path
           id="path3858"
           d="m 593.6675,509.60172 c 0.0653,6.92238 4.6367,11.36316 11.49377,11.36316 6.39993,0 10.90602,-4.57139 10.90602,-11.10194 0,-4.37546 -2.02448,-7.37952 -6.20403,-9.14276 -5.42035,-2.22039 -5.68157,-2.351 -6.72646,-2.87345 -2.22039,-1.11019 -3.26528,-2.61222 -3.26528,-4.70199 0,-2.87344 2.2857,-5.15913 5.15914,-5.15913 3.13466,0 4.96322,1.82855 5.22444,5.22443 l 4.89791,0 c -0.19592,-5.74687 -4.31017,-9.66521 -10.05705,-9.66521 -5.81218,0 -10.12235,4.24486 -10.12235,10.05705 0,2.54691 0.91428,4.7673 2.67753,6.39994 1.50202,1.37141 1.56733,1.37141 6.59585,3.46119 2.15508,0.84897 3.72242,1.63263 4.63669,2.22038 1.43672,0.97958 2.28569,2.67753 2.28569,4.63669 0,3.5918 -2.54691,6.20402 -6.0081,6.20402 -3.98363,0 -6.46524,-2.54691 -6.72647,-6.92238 l -4.7673,0"
           inkscape:connector-curvature="0" />
      </g>
    </g>
  </g>
</svg>
